<svg width="15" height="13" viewBox="0 0 15 13" fill="none" xmlns="http://www.w3.org/2000/svg">
<path d="M7.60045 8.94455C8.37842 8.94455 9.12452 8.68701 9.67463 8.22859C10.2247 7.77017 10.5338 7.14841 10.5338 6.50011C10.5338 5.8518 10.2247 5.23005 9.67463 4.77163C9.12452 4.3132 8.37842 4.05566 7.60045 4.05566C6.82248 4.05566 6.07637 4.3132 5.52627 4.77163C4.97616 5.23005 4.66711 5.8518 4.66711 6.50011C4.66711 7.14841 4.97616 7.77017 5.52627 8.22859C6.07637 8.68701 6.82248 8.94455 7.60045 8.94455Z" stroke="#AAAAAA" stroke-linecap="round" stroke-linejoin="round"/>
<path d="M1 8.94445V4.05556C1 3.24517 1.38631 2.46798 2.07394 1.89495C2.76158 1.32192 3.69421 1 4.66667 1H10.5333C11.5058 1 12.4384 1.32192 13.1261 1.89495C13.8137 2.46798 14.2 3.24517 14.2 4.05556V8.94445C14.2 9.75483 13.8137 10.532 13.1261 11.105C12.4384 11.6781 11.5058 12 10.5333 12H4.66667C3.69421 12 2.76158 11.6781 2.07394 11.105C1.38631 10.532 1 9.75483 1 8.94445Z" stroke="#AAAAAA"/>
<path d="M11.6356 3.14625L11.6433 3.13867" stroke="#AAAAAA" stroke-linecap="round" stroke-linejoin="round"/>
</svg>
