<svg width="13" height="11" viewBox="0 0 13 11" fill="none" xmlns="http://www.w3.org/2000/svg">
<path d="M11.1055 1.60053C10.5066 1.09119 9.79323 0.687348 9.007 0.41256C8.22077 0.137771 7.37741 -0.00246406 6.52613 3.27632e-05C2.9593 3.27632e-05 0.0522614 2.44753 0.0522614 5.45052C0.0522614 6.41301 0.352764 7.34801 0.914573 8.17301L0 11L3.42965 10.241C4.37688 10.6755 5.44171 10.9065 6.52613 10.9065C10.093 10.9065 13 8.45901 13 5.45602C13 3.99852 12.3271 2.62902 11.1055 1.60053ZM6.52613 9.9825C5.5593 9.9825 4.61206 9.7625 3.78241 9.35001L3.58643 9.25101L1.54824 9.702L2.09045 8.03001L1.9598 7.85951C1.42265 7.13734 1.13743 6.3026 1.13668 5.45052C1.13668 2.95352 3.55377 0.91853 6.5196 0.91853C7.95678 0.91853 9.30904 1.39153 10.3216 2.24953C10.823 2.6697 11.2203 3.16949 11.4906 3.71991C11.7608 4.27032 11.8986 4.86043 11.896 5.45602C11.909 7.95301 9.49196 9.9825 6.52613 9.9825ZM9.47889 6.59451C9.31558 6.52851 8.51859 6.19851 8.37487 6.14901C8.22462 6.10501 8.1201 6.08301 8.00904 6.21501C7.89799 6.35251 7.59095 6.66051 7.4995 6.74851C7.40804 6.84201 7.31005 6.85301 7.14673 6.78151C6.98342 6.71551 6.4608 6.56701 5.84673 6.10501C5.36332 5.74202 5.04322 5.29652 4.94523 5.15902C4.85377 5.02152 4.93216 4.95002 5.01709 4.87852C5.08894 4.81802 5.1804 4.71902 5.25879 4.64202C5.33719 4.56502 5.36985 4.50452 5.42211 4.41652C5.47437 4.32302 5.44824 4.24602 5.40904 4.18002C5.36985 4.11402 5.04322 3.44302 4.91256 3.16802C4.78191 2.90402 4.64472 2.93702 4.54673 2.93152H4.23317C4.12211 2.93152 3.95226 2.96452 3.80201 3.10202C3.65829 3.23952 3.2402 3.56952 3.2402 4.24052C3.2402 4.91152 3.82161 5.56052 3.9 5.64852C3.97839 5.74202 5.04322 7.11701 6.66332 7.70551C7.04874 7.84851 7.34925 7.93101 7.58442 7.99151C7.96985 8.09601 8.32261 8.07951 8.60352 8.04651C8.91709 8.00801 9.56382 7.71651 9.69447 7.39751C9.83166 7.07851 9.83166 6.80901 9.78593 6.74851C9.7402 6.68801 9.64221 6.66051 9.47889 6.59451Z" fill="#AAAAAA"/>
</svg>
